<?xml version="1.0" standalone="no"?>
<!DOCTYPE svg PUBLIC "-//W3C//DTD SVG 20010904//EN"
 "http://www.w3.org/TR/2001/REC-SVG-20010904/DTD/svg10.dtd">
<svg version="1.0" xmlns="http://www.w3.org/2000/svg"
 width="512.000000pt" height="512.000000pt" viewBox="0 0 512.000000 512.000000"
 preserveAspectRatio="xMidYMid meet">
<metadata>
Created by potrace 1.11, written by Peter Selinger 2001-2013
</metadata>
<g transform="translate(0.000000,512.000000) scale(0.100000,-0.100000)"
fill="#000000" stroke="none">
<path d="M3647 4956 c-173 -89 -352 -267 -441 -436 -35 -67 -82 -190 -91 -238
-3 -15 -7 -38 -11 -52 -19 -83 -24 -291 -11 -410 7 -66 41 -227 48 -234 8 -6
202 -66 206 -63 1 2 -6 29 -16 59 -10 31 -24 80 -30 109 -10 52 -13 69 -27
149 -4 19 -6 85 -6 145 1 333 146 597 428 781 45 30 87 60 94 69 22 27 16 83
-11 110 -36 37 -76 40 -132 11z"/>
<path d="M3602 4577 l-32 -33 314 -314 c173 -173 312 -319 309 -325 -4 -5 -2
-7 2 -2 11 10 196 -174 188 -187 -3 -5 -2 -6 4 -3 5 3 43 -27 83 -68 40 -41
76 -75 79 -75 4 0 20 14 36 30 l29 31 -490 490 -490 490 -32 -34z"/>
<path d="M3407 4278 c-10 -24 -17 -47 -17 -50 0 -3 189 -196 421 -427 l421
-421 36 16 c20 8 40 18 44 22 4 4 -194 209 -441 456 l-448 448 -16 -44z"/>
<path d="M3366 3843 c2 -10 8 -44 14 -75 11 -55 17 -63 115 -162 57 -57 101
-107 98 -110 -4 -3 -1 -6 6 -6 6 0 34 -22 62 -50 50 -50 79 -63 169 -75 l45
-6 -250 250 c-137 138 -253 251 -256 251 -4 0 -5 -8 -3 -17z"/>
<path d="M4843 3785 c-12 -9 -46 -53 -76 -98 -57 -88 -188 -232 -200 -221 -4
4 -7 2 -7 -5 0 -16 -143 -107 -210 -132 -94 -36 -180 -57 -180 -45 0 6 -4 5
-9 -3 -7 -12 -41 -15 -153 -17 -204 -3 -340 26 -588 123 -202 79 -350 125
-450 139 -19 3 -57 9 -85 14 -53 10 -379 7 -430 -4 -265 -55 -422 -133 -576
-286 -170 -167 -264 -361 -296 -609 -13 -101 -7 -319 12 -411 32 -163 28 -154
87 -170 29 -7 60 -17 68 -21 22 -12 83 -30 87 -26 1 2 -8 42 -22 88 -26 85
-33 117 -41 179 -2 19 -6 46 -9 60 -8 39 -9 219 -1 270 39 254 161 460 353
597 86 62 233 119 366 143 104 20 301 17 445 -6 47 -8 221 -52 247 -63 97 -42
297 -115 370 -136 361 -102 684 -87 950 44 169 83 298 197 406 357 93 139 102
183 47 229 -34 28 -73 32 -105 10z"/>
<path d="M2830 3255 c0 -8 431 -437 435 -433 2 2 -1 36 -7 75 l-11 72 -136
135 c-130 130 -138 136 -190 146 -59 11 -91 13 -91 5z"/>
<path d="M2395 3236 l-40 -12 128 -126 c70 -70 127 -132 127 -138 0 -5 4 -10
10 -10 14 0 410 -398 410 -412 0 -6 3 -9 6 -6 3 4 48 -36 99 -88 l94 -94 12
42 c7 24 11 50 10 58 -4 21 -785 800 -802 799 -8 0 -32 -6 -54 -13z"/>
<path d="M3303 3114 c46 -154 61 -263 61 -439 0 -162 -7 -221 -46 -345 -31
-96 -97 -219 -144 -267 -7 -7 -21 -23 -31 -35 -26 -33 -119 -109 -178 -146
-132 -82 -284 -124 -462 -128 -67 -1 -143 2 -170 7 -26 6 -64 12 -83 15 -93
15 -225 54 -345 104 -172 72 -326 120 -431 135 -21 4 -46 8 -54 10 -62 16
-297 25 -375 14 -27 -4 -72 -10 -100 -13 -71 -8 -212 -51 -299 -90 -156 -71
-299 -192 -392 -332 -74 -111 -103 -180 -93 -220 13 -45 44 -69 90 -68 48 2
64 14 96 78 66 131 159 239 268 311 60 40 189 99 235 109 14 3 57 13 95 21
106 24 351 24 479 0 161 -31 371 -99 359 -118 -3 -5 -1 -7 4 -4 6 4 42 -5 79
-19 125 -47 252 -83 359 -100 17 -3 41 -8 55 -11 14 -3 97 -7 185 -9 128 -2
178 1 250 16 127 27 190 47 270 87 287 145 471 385 541 707 35 156 38 392 9
559 -3 15 -7 37 -8 50 -9 58 -16 64 -105 95 -48 16 -95 33 -106 37 -15 7 -17
4 -13 -11z"/>
<path d="M2083 3060 c-17 -17 -31 -40 -30 -50 1 -11 3 -17 6 -14 9 9 800 -789
794 -800 -3 -6 -2 -7 2 -3 5 4 45 -29 90 -73 l81 -80 32 31 c18 17 32 34 32
38 0 3 -220 226 -488 494 l-488 488 -31 -31z"/>
<path d="M1896 2768 c-3 -7 -9 -28 -15 -46 l-10 -33 410 -411 c442 -442 409
-416 485 -388 26 10 16 21 -414 450 -242 242 -442 440 -446 440 -4 0 -8 -6
-10 -12z"/>
<path d="M1864 2288 c28 -138 20 -124 160 -265 131 -131 131 -132 199 -147 38
-9 78 -16 90 -16 21 0 21 1 -3 18 -40 27 -369 360 -362 366 3 3 -1 6 -10 6 -8
0 -25 14 -38 30 -27 36 -42 39 -36 8z"/>
<path d="M1515 1521 c132 -132 242 -241 244 -241 5 0 -9 117 -16 137 -4 10
-76 86 -161 170 -145 144 -156 152 -200 158 -26 4 -60 9 -77 12 -25 4 11 -36
210 -236z"/>
<path d="M853 1717 l-33 -12 444 -444 444 -444 16 38 c9 20 16 44 16 51 0 8
-85 99 -189 203 -104 104 -187 192 -183 195 3 3 0 6 -7 6 -15 0 -401 387 -393
394 3 3 -2 6 -11 6 -9 0 -17 5 -17 10 0 13 -47 11 -87 -3z"/>
<path d="M1815 1527 c34 -139 36 -158 40 -327 5 -174 -6 -258 -52 -400 -22
-70 -94 -201 -106 -193 -5 3 -7 1 -3 -5 21 -34 -189 -217 -302 -262 -69 -27
-94 -105 -49 -153 27 -29 77 -52 77 -35 0 6 3 8 7 5 12 -12 180 85 254 147
108 90 180 182 243 309 52 104 102 261 108 338 1 16 5 29 8 29 8 0 5 356 -4
405 -4 22 -12 65 -18 95 -7 30 -11 58 -10 61 0 3 -41 20 -93 38 -52 17 -101
34 -108 37 -12 4 -10 -14 8 -89z"/>
<path d="M548 1527 l-27 -32 487 -487 c268 -269 489 -488 492 -488 3 0 20 13
38 29 l33 29 -491 491 c-270 270 -494 491 -498 491 -4 0 -19 -15 -34 -33z"/>
</g>
</svg>
