<svg id="Layer_1" data-name="Layer 1" xmlns="http://www.w3.org/2000/svg" viewBox="0 0 512 512"><title>instagram-glyph</title><g id="Instagram"><circle id="back" cx="256" cy="256" r="256" fill="#929292"/><path id="Instagram-2" data-name="Instagram" d="M366.28,233.93h-25a88.22,88.22,0,1,1-170.64,0h-25V355.25a11,11,0,0,0,11,11H355.24a11,11,0,0,0,11-11Zm0-77.19a11,11,0,0,0-11-11H322.17a11,11,0,0,0-11,11v33.09a11,11,0,0,0,11,11h33.07a11,11,0,0,0,11-11ZM256,200.86A55.14,55.14,0,1,0,311.14,256,55.13,55.13,0,0,0,256,200.86m110.28,198.5H145.72a33.09,33.09,0,0,1-33.08-33.09V145.72a33.08,33.08,0,0,1,33.08-33.08H366.28a33.07,33.07,0,0,1,33.08,33.08V366.27a33.08,33.08,0,0,1-33.08,33.09" fill="#fff" fill-rule="evenodd"/></g></svg>